<svg width="210" height="142" viewBox="0 0 210 142" fill="none" xmlns="http://www.w3.org/2000/svg">
<mask id="mask0_77_679" style="mask-type:luminance" maskUnits="userSpaceOnUse" x="0" y="0" width="210" height="142">
<path d="M0.666656 0.666672H209.047V142H0.666656V0.666672Z" fill="white"/>
</mask>
<g mask="url(#mask0_77_679)">
<path d="M7.22396 45.2656C7.44271 42.5365 11.6458 42.974 16.9375 47.1198C22.224 51.2656 9.40625 50.776 6.68229 53.8906C3.95313 57.0104 1.65625 63.9115 10.099 71.0365C10.099 71.0365 10.1719 78.9323 18.3542 90.8229C18.3542 90.8229 16.9375 81.4427 21.3021 72.4948C21.3021 72.4948 19.3333 72.4219 15.6979 71.7656C15.6979 71.7656 36.1354 70.0937 37.0104 57.7656C37.0104 57.7656 38.2448 65.875 30.3906 69.0729C30.3906 69.0729 48.8646 66.3125 62.8281 79.5469C76.7917 92.7865 74.901 110.677 52.0625 114.458C52.0625 114.458 45.5208 111.005 39.9531 106.422C39.9531 106.422 39.7396 114.443 45.2448 121.099C45.2448 121.099 48.9583 119.521 49.3906 117.448C49.3906 117.448 49.5573 119.63 45.6823 122.193C45.6823 122.193 48.2448 137.63 60.6823 141.448C60.6823 141.448 58.8281 134.031 72.7917 130.76C86.7604 127.495 105.156 110.25 91.6302 85.8125C91.6302 85.8125 145.672 79.4844 191.49 115.271C191.49 115.271 174.031 80.1406 119.266 68.5781C119.266 68.5781 129.453 63.2656 153.016 66.7604C153.016 66.7604 129.161 47.2656 83.3385 49.8854C83.3385 49.8854 134.833 32.1354 196.802 58.8958C196.802 58.8958 168.87 25.5833 118.25 25.4427C118.25 25.4427 125.599 11.4062 149.818 9.4375C149.818 9.4375 151.781 19.5833 143.922 25.9167C143.922 25.9167 172.943 27.5573 208.943 43.9219C208.943 43.9219 187.563 25.1562 157.234 18.6094C157.234 18.6094 155.781 20.3542 148.505 23.7031C148.505 23.7031 161.453 17.5937 159.125 2.60937C159.125 2.60937 129.448 -3.0625 113.594 16.4271C113.594 16.4271 117.083 8.79166 125.266 5.29687C125.266 5.29687 53.2292 -0.734378 45.3698 25.7396C45.3698 25.7396 29.3698 30.099 14.8229 34.1719C0.27604 38.2448 -0.958334 44.3542 3.51563 54.2865C3.51563 54.2865 4.33333 50.6302 8.36979 50.6302C12.4063 50.6302 7.00521 47.9948 7.22396 45.2656ZM38.6823 42.1562C40.5729 39.4271 49.0104 35.8281 49.0104 35.8281C58.2813 22.6302 79.5573 23.1719 79.5573 23.1719C79.3333 28.9583 71.4792 33.6458 71.4792 33.6458C76.5052 34.5208 79.9896 38.0833 79.9896 38.0833C58.901 33.5781 38.6823 42.1562 38.6823 42.1562Z" fill="#ECB84A"/>
</g>
</svg>
