<svg xmlns="http://www.w3.org/2000/svg" xmlns:xlink="http://www.w3.org/1999/xlink" width="293" zoomAndPan="magnify" viewBox="0 0 219.75 219.749993" height="293" preserveAspectRatio="xMidYMid meet" version="1.0"><defs><clipPath id="17e1a4f02c"><path d="M 0 0 L 219.5 0 L 219.5 219.5 L 0 219.5 Z M 0 0 " clip-rule="nonzero"/></clipPath><clipPath id="95b74e3553"><path d="M 0 0 L 219.261719 0 L 219.261719 219.261719 L 0 219.261719 Z M 0 0 " clip-rule="nonzero"/></clipPath><clipPath id="0197963faf"><path d="M 109.632812 0 C 49.082031 0 0 49.082031 0 109.632812 C 0 170.179688 49.082031 219.261719 109.632812 219.261719 C 170.179688 219.261719 219.261719 170.179688 219.261719 109.632812 C 219.261719 49.082031 170.179688 0 109.632812 0 Z M 109.632812 0 " clip-rule="nonzero"/></clipPath><clipPath id="e9220035ac"><path d="M 104 83.804688 L 195.355469 83.804688 L 195.355469 189.847656 L 104 189.847656 Z M 104 83.804688 " clip-rule="nonzero"/></clipPath><clipPath id="ce00bb4928"><path d="M 82 19.566406 L 148.628906 19.566406 L 148.628906 199.671875 L 82 199.671875 Z M 82 19.566406 " clip-rule="nonzero"/></clipPath></defs><g clip-path="url(#17e1a4f02c)"><path fill="#ffffff" d="M 0 0 L 219.5 0 L 219.5 219.5 L 0 219.5 Z M 0 0 " fill-opacity="1" fill-rule="nonzero"/></g><g clip-path="url(#95b74e3553)"><g clip-path="url(#0197963faf)"><path fill="#ffffff" d="M 0 0 L 219.261719 0 L 219.261719 219.261719 L 0 219.261719 Z M 0 0 " fill-opacity="1" fill-rule="nonzero"/></g></g><g clip-path="url(#e9220035ac)"><path fill="#00273d" d="M 177.425781 118.632812 C 176.835938 119.414062 175.742188 119.597656 174.929688 119.050781 C 167.71875 114.179688 159.984375 111.039062 151.425781 110.230469 C 148.292969 109.933594 145.003906 110.25 141.914062 110.90625 C 139.023438 111.519531 137.566406 114.4375 138.808594 116.800781 C 139.5 118.132812 141.03125 119.425781 142.457031 119.898438 C 145.871094 121.019531 149.425781 121.777344 152.96875 122.433594 C 160.9375 123.90625 168.949219 125.238281 176.417969 128.523438 C 179.636719 129.941406 182.808594 131.671875 185.617188 133.777344 C 193.757812 139.882812 196.160156 148.425781 195.132812 158.171875 C 193.644531 172.316406 185.933594 182 172.605469 186.101562 C 150.976562 192.765625 130.015625 190.644531 110.472656 178.617188 C 108.5625 177.4375 106.816406 175.992188 104.957031 174.53125 C 104.1875 173.925781 104.023438 172.828125 104.582031 172.027344 C 109.308594 165.269531 113.929688 158.660156 118.355469 152.328125 C 118.921875 151.523438 120.019531 151.308594 120.851562 151.839844 C 124.9375 154.433594 128.796875 157.15625 132.988281 159.183594 C 140.585938 162.855469 148.722656 164.386719 157.195312 163.058594 C 158.617188 162.835938 160.070312 162.304688 161.320312 161.597656 C 164.96875 159.527344 165.082031 155.617188 161.546875 153.40625 C 160.09375 152.496094 158.433594 151.757812 156.773438 151.382812 C 150.449219 149.9375 144.070312 148.734375 137.738281 147.320312 C 131.449219 145.914062 125.347656 143.941406 119.824219 140.484375 C 115.171875 137.570312 111.476562 133.78125 109.367188 128.644531 C 109.023438 127.820312 108.972656 126.652344 109.273438 125.820312 C 113.34375 114.558594 117.476562 103.320312 121.675781 92.105469 C 121.992188 91.269531 122.78125 90.429688 123.574219 89.980469 C 129.976562 86.335938 136.949219 84.558594 144.25 84.101562 C 159.953125 83.128906 174.769531 85.980469 188.15625 94.679688 C 188.859375 95.132812 190.292969 96.199219 191.414062 97.046875 C 192.21875 97.660156 192.378906 98.808594 191.769531 99.617188 C 187.003906 105.9375 182.25 112.238281 177.425781 118.632812 " fill-opacity="1" fill-rule="nonzero"/></g><path fill="#00273d" d="M 61.734375 154.242188 C 70.035156 154.191406 78.339844 154.21875 86.644531 154.21875 C 86.808594 154.21875 86.976562 154.21875 87.144531 154.21875 C 87.421875 154.21875 87.710938 154.21875 88.023438 154.21875 C 88.328125 154.21875 88.65625 154.21875 89.023438 154.21875 L 97.785156 154.21875 C 98.554688 154.21875 99.242188 153.738281 99.511719 153.015625 C 111.277344 121.066406 123.042969 89.121094 134.8125 57.171875 C 135.320312 55.804688 134.304688 54.351562 132.847656 54.351562 L 102.40625 54.351562 C 101.496094 54.351562 100.6875 54.941406 100.410156 55.8125 C 93.515625 77.320312 86.644531 98.75 79.609375 120.699219 C 79.164062 119.390625 78.898438 118.65625 78.664062 117.914062 C 72.03125 97.21875 65.386719 76.523438 58.804688 55.8125 C 58.527344 54.945312 57.71875 54.351562 56.808594 54.351562 L 26.328125 54.351562 C 24.867188 54.351562 23.855469 55.804688 24.359375 57.175781 C 36.097656 89.03125 47.84375 120.886719 59.550781 152.753906 C 59.972656 153.90625 60.550781 154.25 61.734375 154.242188 " fill-opacity="1" fill-rule="nonzero"/><g clip-path="url(#ce00bb4928)"><path fill="#00273d" d="M 82.226562 199.671875 L 111.292969 102.84375 L 148.386719 19.566406 L 124.546875 102.734375 L 82.226562 199.671875 " fill-opacity="1" fill-rule="nonzero"/></g></svg>